<?xml version="1.0" encoding="utf-8"?>
<!-- Generator: Adobe Illustrator 15.1.0, SVG Export Plug-In . SVG Version: 6.00 Build 0)  -->
<!DOCTYPE svg PUBLIC "-//W3C//DTD SVG 1.1//EN" "http://www.w3.org/Graphics/SVG/1.1/DTD/svg11.dtd">
<svg version="1.1" id="Layer_1" xmlns="http://www.w3.org/2000/svg" xmlns:xlink="http://www.w3.org/1999/xlink" x="0px" y="0px"
	 width="386.302px" height="446.575px" viewBox="0 0 386.302 446.575" enable-background="new 0 0 386.302 446.575"
	 xml:space="preserve">
<g>
	<path fill="#BFBAB8" d="M191.455,77.397c0,0-1.486,36.185-0.736,40.872s-7.406,16.5-7.406,16.5l17.898-2.406
		c0,0-0.086-23.281,5.258-24.031S191.455,77.397,191.455,77.397z"/>
	<path fill="#3B3633" d="M151.188,302.113c0,0-16.25-7-32,7.25s-33,67.75-32.75,73.75s-0.003,12-0.003,12s15.252,5.75,21.503,10.75
		c6.25,5,28,7.249,44.75,3.75c16.75-3.5,36-7.25,45.5-12s15.688-88.188,15.688-88.188S174.918,300.563,151.188,302.113z"/>
	<path fill="#88513C" d="M286.938,434.863c0,0-15.713-5.097-62-18c-46.288-12.903-44.75-32.75-44.75-32.75s-6.5-18.249-6.5-19.25
		c0-1,1.5-34.5,4.5-36.5s23.878-16.954,28.563-16.727c4.687,0.227,49.01-6.754,82.26,26.747c16.526,3.354,5.199-0.021,11.927-0.021
		c6,0,58.75,57.5,58.75,66.5c0,0,9.652,16.923,18.5,19.501c0,0,3.5,11.749-15.75,13.499s-35.75,1.75-41.75-2.5
		S286.938,434.863,286.938,434.863z"/>
	<path fill="#AF9680" d="M92.688,195.363c0,0-2.5,67.5,19,85c21.5,17.5,68,30.5,99.75,31.5c31.75,1,68.75,21.5,75.25,25.5
		s44.5,8.5,43-15.5s-4-30.25-3.25-31.75s0.75-12.999-4.5-20.75c-1.25-5.5-2.751-12-2.5-16.25c0.25-4.25-8.751-32.75-19.5-38.75
		c-10.75-6-18.5-36-50.5-43.5s-133.5,5-146.75,15C102.688,185.863,95.438,187.113,92.688,195.363z"/>
	<path fill="#958681" d="M155.438,417.863c0,0,25.75-30,33.5-31c7.75-1,22,0.25,28.5,11.25c6.5,11,12.75,29.25,12.75,29.25l-9,3.25
		c0,0-13,7.999-26.75,0C180.688,422.613,155.438,417.863,155.438,417.863z"/>
	<g>
		<defs>
			<path id="XMLID_17_" d="M171.609,148.531c0,0,40.328-15.418,40.328-18.918s-6.75-22.75-6.75-22.75s-14.272-28.453-13.793-29.995
				c2.364-7.619,9.817-6.755,9.817-6.755s13.227-2.75,15.477-5.25s14.25-2,13.5-2s4.75,3,9.75,5.875
				c4.999,2.875,7.75,8.625,9.75,14.375c3.75,5,3,41.5,3,41.5c2.749,17.5-8.75,44.25-8.75,44.25s-70.75,10.5-81.914,8.193
				c-11.163-2.307-16.586-17.943-9.586-22.193S171.609,148.531,171.609,148.531"/>
		</defs>
		<use xlink:href="#XMLID_17_"  overflow="visible" fill="#C9C3C0"/>
		<clipPath id="XMLID_2_">
			<use xlink:href="#XMLID_17_"  overflow="visible"/>
		</clipPath>
		<rect x="141.521" y="140.863" clip-path="url(#XMLID_2_)" fill="#ADACAC" width="36" height="47"/>
		<path clip-path="url(#XMLID_2_)" fill="#C1BFBF" d="M221.665,168.312c0,0,32.147-25.041,48.272-62.229
			c16.125-37.188,8.47,91.549,8.47,91.549l-64.857-6.914"/>
	</g>
	<path fill="none" stroke="#E05A17" stroke-width="0.75" stroke-miterlimit="10" d="M201.211,132.363"/>
	<path fill="none" stroke="#E05A17" stroke-width="0.75" stroke-miterlimit="10" d="M180.438,136.356"/>
	<path fill="none" stroke="#E05A17" stroke-width="0.75" stroke-miterlimit="10" d="M191.938,116.863"/>
	<path fill="#C9C3C0" d="M188.938,158.238c0,0-8.5-22.874-28-0.625c-1.5,10.5,1.25,19.5,11.25,19.75s44.205,12,45.978,13.5
		s8.521,1.5,9.772,1.5c1.25,0,14.75,14,26.5,12.5c0,0-12.25-7.5-7-7.5c0,0,38,22.5,37.75,26s8.25-13.75-19.25-36"/>
	<path fill="#E0E0E0" d="M264.938,199.613c0,0,11.75-15.25-13.25-28c0,0,1.499-4.5-8.75-6.75c-2.5,0.5-7.5,2.5-7.5,2.5l-21.25-2.5"
		/>
	<path fill="#B7B6B6" d="M179.188,156.863c23.75-0.999,28,4.75,41.25,11c24.75,6.75,39.75,29.5,39.75,29.5
		s-77.25-21.625-82.875-24.625s-8.625-6.75-7.875-7.875S179.188,156.863,179.188,156.863z"/>
	<path fill="#C9C3C0" stroke="#B2B2B2" stroke-width="0.75" stroke-miterlimit="10" d="M212.687,91.988c0,0-3,16.75,9.541,13.785
		c0,0,7.585-2.848,6.897-8.473"/>
	<path fill="#C1BFBF" d="M247.913,78.601l-2.999,9.012l-4.773,18.25c0,0-8.047,12.25-10.797,22
		c-2.751,9.75-54.302,22.75-54.302,22.75l-6.521-3v-0.75c0,0,0.828-8.254,8.578-11.004c5.25-2.5,4.848-4.754,15.098-4.754
		s26.104-12.758,26.104-12.758s4.283-15.515,6.533-19.016c2.25-3.5,0.982-18.281,0.982-18.281s2.919-11.563,10.17-12.313l2.899-0.6
		c0,0,4.411,1.918,6.718,6.19C247.908,78.601,247.913,78.601,247.913,78.601z"/>
	<path fill="#BFBAB8" d="M206.188,75.613c0,0-6.25-14-10-14s-7,4.25-8.75,2.25c-1.75-2-1.5-6.25-1.5-6.25s-0.75-2.75-3.75-2.75
		s-0.75-2.25,0-6.25s-1.517-15-1.517-15l-0.099-0.803l16.334-1.213l23.781,26.391l8.481,5.793"/>
	<path fill="none" stroke="#E05A17" stroke-width="0.75" stroke-miterlimit="10" d="M185.688,24.363"/>
	<path fill="none" stroke="#E05A17" stroke-width="0.75" stroke-miterlimit="10" d="M214.188,27.863"/>
	<path fill="none" stroke="#E05A17" stroke-width="0.75" stroke-miterlimit="10" d="M216.438,44.113"/>
	<path fill="none" stroke="#E05A17" stroke-width="0.75" stroke-miterlimit="10" d="M219.688,48.246"/>
	<path fill="none" stroke="#E05A17" stroke-width="0.75" stroke-miterlimit="10" d="M224.688,56.363"/>
	<path fill="none" stroke="#E05A17" stroke-width="0.75" stroke-miterlimit="10" d="M230.688,61.113"/>
	<path fill="none" stroke="#E05A17" stroke-width="0.75" stroke-miterlimit="10" d="M233.688,66.863"/>
	<path fill="#A59B97" d="M180.572,32.81c0,0,8.365,9.553,10.115,9.553s2.547,8,10.523,8.25s11.727,7.5,12.977,8.25
		s2.709,7.249,11.729,4c5.605,1.039,6.427,3.375,6.427,3.375s-0.266-7.125-7.656-9.469c-1.344-3.047-3.406-6.563-6.219-6.656
		c-0.938-1.547,4.172-7.594-1.125-12.281c-0.047-4.219-0.906-14.719-13.641-17.625c-14.621-3.336-21.704,8.719-21.704,8.719
		L180.572,32.81z"/>
	<path fill="#C9C3C0" stroke="#B2B2B2" stroke-width="0.75" stroke-miterlimit="10" d="M210.625,101.55"/>
	<path fill="#C9C3C0" stroke="#B2B2B2" stroke-width="0.75" stroke-miterlimit="10" d="M197.375,79.457
		c0,0-4.406,8.156-0.938,12.469c0.75,2.813-1.969,9.188-1.969,9.188s4.746,7.661,13.156,6.558"/>
</g>
</svg>
