<?xml version="1.0" encoding="utf-8"?>
<!-- Generator: Adobe Illustrator 15.1.0, SVG Export Plug-In . SVG Version: 6.00 Build 0)  -->
<!DOCTYPE svg PUBLIC "-//W3C//DTD SVG 1.1//EN" "http://www.w3.org/Graphics/SVG/1.1/DTD/svg11.dtd">
<svg version="1.1" id="Layer_1" xmlns="http://www.w3.org/2000/svg" xmlns:xlink="http://www.w3.org/1999/xlink" x="0px" y="0px"
	 width="512px" height="162.332px" viewBox="0 157.645 512 162.332" enable-background="new 0 157.645 512 162.332"
	 xml:space="preserve">
<g id="icomoon-ignore">
</g>
<g>
	<g>
		<defs>
			<path id="SVGID_1_" d="M1.096,287.326c0,0-1.125,32.174,47.663,32.174s200.284,0,200.284,0h12.835c0,0,151.497,0,200.286,0
				c48.788,0,48.171-32.15,48.171-32.15l-0.079-1.903c0,0-15.371-127.946-58.068-127.946H59.378
				c-42.698,0-58.068,128.258-58.068,128.258L1.096,287.326z"/>
		</defs>
		<use xlink:href="#SVGID_1_"  overflow="visible" fill="#CC0000"/>
		<clipPath id="SVGID_2_">
			<use xlink:href="#SVGID_1_"  overflow="visible"/>
		</clipPath>
		<g clip-path="url(#SVGID_2_)">
			<defs>
				<path id="XMLID_16_" d="M130.961,238.811c-11.724,0-13.735-8.682-13.735-20.406l0,0c0-11.725,2.012-20.405,13.735-20.405h38.71
					c11.724,0,13.735,9.167,13.735,21.654l0,0c0,9.989-2.012,20.192-13.735,20.192L130.961,238.811z"/>
			</defs>
			<use xlink:href="#XMLID_16_"  overflow="visible" fill="#333333"/>
			<clipPath id="XMLID_2_">
				<use xlink:href="#XMLID_16_"  overflow="visible"/>
			</clipPath>
			
				<line clip-path="url(#XMLID_2_)" fill="none" stroke="#1A1A1A" stroke-width="3" stroke-miterlimit="10" x1="194.5" y1="213" x2="80.5" y2="213"/>
			<use xlink:href="#XMLID_16_"  overflow="visible" fill="none" stroke="#1A1A1A" stroke-width="3" stroke-miterlimit="10"/>
		</g>
		<g clip-path="url(#SVGID_2_)">
			<defs>
				<path id="XMLID_15_" d="M51.044,238.811c-11.724,0-13.736-8.682-13.736-20.406l0,0c0-11.725,2.012-20.405,13.736-20.405h38.71
					c11.724,0,13.736,9.167,13.736,21.654l0,0c0,9.989-2.012,20.192-13.736,20.192L51.044,238.811z"/>
			</defs>
			<use xlink:href="#XMLID_15_"  overflow="visible" fill="#333333"/>
			<clipPath id="XMLID_3_">
				<use xlink:href="#XMLID_15_"  overflow="visible"/>
			</clipPath>
			
				<line clip-path="url(#XMLID_3_)" fill="none" stroke="#1A1A1A" stroke-width="3" stroke-miterlimit="10" x1="114.5" y1="213" x2="-0.5" y2="213"/>
			<use xlink:href="#XMLID_15_"  overflow="visible" fill="none" stroke="#1A1A1A" stroke-width="3" stroke-miterlimit="10"/>
		</g>
		<rect x="-138.32" y="286.262" clip-path="url(#SVGID_2_)" fill="#333333" width="732.417" height="99.896"/>
		<path clip-path="url(#SVGID_2_)" fill="none" stroke="#F4F4F4" stroke-width="2.4974" stroke-miterlimit="10" d="M152.188,177.624
			"/>
		<path clip-path="url(#SVGID_2_)" fill="none" stroke="#F4F4F4" stroke-width="2.4974" stroke-miterlimit="10" d="M143.488,157.206
			"/>
		
			<circle clip-path="url(#SVGID_2_)" fill="none" stroke="#FFFFFF" stroke-width="7.4923" stroke-linecap="round" stroke-linejoin="round" stroke-miterlimit="10" cx="29.265" cy="236.121" r="32.396"/>
		
			<line clip-path="url(#SVGID_2_)" fill="none" stroke="#FFFFFF" stroke-width="8" stroke-linecap="round" stroke-linejoin="round" stroke-miterlimit="10" x1="32.5" y1="238.5" x2="72.5" y2="238.5"/>
		
			<polyline clip-path="url(#SVGID_2_)" fill="none" stroke="#FFFFFF" stroke-width="7.4923" stroke-linecap="round" stroke-linejoin="round" stroke-miterlimit="10" points="
			49.195,172.446 74.377,236.316 123.506,190.277 		"/>
		
			<line clip-path="url(#SVGID_2_)" fill="none" stroke="#FFFFFF" stroke-width="7.4923" stroke-linecap="round" stroke-linejoin="round" stroke-miterlimit="10" x1="53.154" y1="184.308" x2="31.755" y2="236.192"/>
		
			<line clip-path="url(#SVGID_2_)" fill="none" stroke="#FFFFFF" stroke-width="7.4923" stroke-linecap="round" stroke-linejoin="round" stroke-miterlimit="10" x1="119.411" y1="184.494" x2="53.107" y2="184.432"/>
		
			<circle clip-path="url(#SVGID_2_)" fill="none" stroke="#FFFFFF" stroke-width="7.4923" stroke-linecap="round" stroke-linejoin="round" stroke-miterlimit="10" cx="137.405" cy="236.245" r="32.396"/>
		
			<polyline clip-path="url(#SVGID_2_)" fill="none" stroke="#FFFFFF" stroke-width="8" stroke-linecap="round" stroke-linejoin="round" stroke-miterlimit="10" points="
			137.992,241.61 117.634,170.5 106.5,170.5 		"/>
		
			<line clip-path="url(#SVGID_2_)" fill="none" stroke="#FFFFFF" stroke-width="8" stroke-linecap="round" stroke-linejoin="round" stroke-miterlimit="10" x1="42.5" y1="170.5" x2="57.5" y2="170.5"/>
		
			<circle clip-path="url(#SVGID_2_)" fill="#FFFFFF" stroke="#FFFFFF" stroke-width="4.9948" stroke-miterlimit="10" cx="74.542" cy="236.371" r="5.047"/>
	</g>
	<path fill="#333333" d="M391.941,212.588"/>
	<g>
		<defs>
			<path id="XMLID_13_" d="M370.714,238.811c-11.723,0-13.735-8.682-13.735-20.406l0,0c0-11.725,2.013-20.405,13.735-20.405h38.71
				c11.724,0,13.735,9.167,13.735,21.654l0,0c0,9.989-2.012,20.192-13.735,20.192L370.714,238.811z"/>
		</defs>
		<use xlink:href="#XMLID_13_"  overflow="visible" fill="#333333"/>
		<clipPath id="XMLID_4_">
			<use xlink:href="#XMLID_13_"  overflow="visible"/>
		</clipPath>
		
			<line clip-path="url(#XMLID_4_)" fill="#333333" stroke="#1A1A1A" stroke-width="3" stroke-miterlimit="10" x1="434.5" y1="216" x2="319.5" y2="216"/>
		<use xlink:href="#XMLID_13_"  overflow="visible" fill="none" stroke="#1A1A1A" stroke-width="3" stroke-miterlimit="10"/>
	</g>
	<g>
		<defs>
			<path id="XMLID_12_" d="M467.813,222.041c0,7.207-6.178,8.444-14.908,8.444l0,0c-8.728,0-14.904-1.238-14.904-8.444v-23.799
				c0-7.205,6.538-8.443,15.836-8.443l0,0c7.438,0,14.891,1.238,14.891,8.443L467.813,222.041z"/>
		</defs>
		<use xlink:href="#XMLID_12_"  overflow="visible" fill="#333333"/>
		<clipPath id="XMLID_5_">
			<use xlink:href="#XMLID_12_"  overflow="visible"/>
		</clipPath>
		
			<line clip-path="url(#XMLID_5_)" fill="none" stroke="#1A1A1A" stroke-width="2.4974" stroke-miterlimit="10" x1="437.908" y1="204.94" x2="468.448" y2="205.094"/>
		<use xlink:href="#XMLID_12_"  overflow="visible" fill="none" stroke="#1A1A1A" stroke-width="3" stroke-miterlimit="10"/>
	</g>
	<g>
		<defs>
			<path id="XMLID_11_" d="M290.797,238.811c-11.725,0-13.736-8.682-13.736-20.406l0,0c0-11.725,2.012-20.405,13.736-20.405h38.71
				c11.724,0,13.735,9.167,13.735,21.654l0,0c0,9.989-2.012,20.192-13.735,20.192L290.797,238.811z"/>
		</defs>
		<use xlink:href="#XMLID_11_"  overflow="visible" fill="#333333"/>
		<clipPath id="XMLID_6_">
			<use xlink:href="#XMLID_11_"  overflow="visible"/>
		</clipPath>
		
			<line clip-path="url(#XMLID_6_)" fill="#333333" stroke="#1A1A1A" stroke-width="3" stroke-miterlimit="10" x1="354.5" y1="216" x2="239.5" y2="216"/>
		<use xlink:href="#XMLID_11_"  overflow="visible" fill="none" stroke="#1A1A1A" stroke-width="3" stroke-miterlimit="10"/>
	</g>
	<g>
		<defs>
			<rect id="XMLID_10_" x="198" y="193" width="64" height="92"/>
		</defs>
		<clipPath id="XMLID_7_">
			<use xlink:href="#XMLID_10_"  overflow="visible"/>
		</clipPath>
		
			<line clip-path="url(#XMLID_7_)" fill="none" stroke="#1A1A1A" stroke-width="3" stroke-miterlimit="10" x1="231" y1="194.5" x2="231" y2="286.5"/>
		<use xlink:href="#XMLID_10_"  overflow="visible" fill="none" stroke="#7A0909" stroke-width="3" stroke-miterlimit="10"/>
	</g>
	<path fill="#333333" d="M254.5,208.368c0-3.793-3.075-6.868-6.869-6.868h-1.262c-3.794,0-6.869,3.075-6.869,6.868v24.265
		c0,3.793,3.075,6.868,6.869,6.868h1.262c3.794,0,6.869-3.075,6.869-6.868V208.368z"/>
	<path fill="#333333" d="M221.5,208.368c0-3.793-3.075-6.868-6.869-6.868h-1.263c-3.793,0-6.869,3.075-6.869,6.868v24.265
		c0,3.793,3.075,6.868,6.869,6.868h1.263c3.793,0,6.869-3.075,6.869-6.868V208.368z"/>
	<circle fill="#C1B8B8" cx="223.044" cy="248.81" r="3.756"/>
	<g>
		<defs>
			<rect id="XMLID_9_" x="198" y="173" width="64" height="12"/>
		</defs>
		<clipPath id="XMLID_8_">
			<use xlink:href="#XMLID_9_"  overflow="visible"/>
		</clipPath>
		<rect x="204.5" y="171.5" clip-path="url(#XMLID_8_)" fill="#333333" width="52" height="20"/>
		<rect x="204.5" y="171.5" clip-path="url(#XMLID_8_)" fill="#191919" width="12" height="28"/>
		<rect x="206.5" y="176.5" clip-path="url(#XMLID_8_)" fill="#F2A62C" width="8" height="5"/>
		<use xlink:href="#XMLID_9_"  overflow="visible" fill="none" stroke="#7A0909" stroke-width="3" stroke-miterlimit="10"/>
	</g>
	<rect x="201.5" y="163.5" fill="#333333" width="57" height="5"/>
</g>
</svg>
